<svg aria-hidden="true" style="position: absolute; width: 0; height: 0; overflow: hidden;" version="1.1" xmlns="http://www.w3.org/2000/svg" xmlns:xlink="http://www.w3.org/1999/xlink">
<defs>
<symbol id="icon-icon-4" viewBox="0 0 32 32">
<path fill="none" stroke="#0f59d4" style="stroke: var(--color1, #0f59d4)" stroke-linejoin="miter" stroke-linecap="butt" stroke-miterlimit="4" stroke-width="1" d="M7.5 21.5h17c0.552 0 1 0.448 1 1v5c0 0.552-0.448 1-1 1h-17c-0.552 0-1-0.448-1-1v-5c0-0.552 0.448-1 1-1z"></path>
<path fill="#0f59d4" style="fill: var(--color1, #0f59d4)" d="M9 27.5c0-2.485-2.015-4.5-4.5-4.5s-4.5 2.015-4.5 4.5c0 2.485 2.015 4.5 4.5 4.5s4.5-2.015 4.5-4.5z"></path>
<path fill="#fff" style="fill: var(--color2, #fff)" d="M2.596 28.718v-0.42l2.148-2.748h0.648l-2.13 2.748-0.306-0.096h3.354v0.516h-3.714zM4.93 29.75v-1.032l0.018-0.516v-0.912h0.564v2.46h-0.582z"></path>
<path fill="none" stroke="#0f59d4" style="stroke: var(--color1, #0f59d4)" stroke-linejoin="miter" stroke-linecap="butt" stroke-miterlimit="4" stroke-width="1" d="M15.266 3.912c0.456-0.256 1.012-0.256 1.468 0l0.796 0.447c0.219 0.123 0.465 0.189 0.715 0.192l0.913 0.011c0.523 0.006 1.004 0.285 1.271 0.734l0.466 0.785c0.128 0.216 0.308 0.396 0.524 0.524l0.785 0.466c0.449 0.267 0.727 0.748 0.734 1.271l0.011 0.913c0.003 0.251 0.069 0.497 0.192 0.715l0.447 0.796c0.256 0.456 0.256 1.012 0 1.468l-0.447 0.796c-0.123 0.219-0.189 0.465-0.192 0.715l-0.011 0.913c-0.006 0.523-0.285 1.004-0.734 1.271l-0.785 0.466c-0.216 0.128-0.396 0.308-0.524 0.524l-0.466 0.785c-0.267 0.449-0.748 0.727-1.271 0.734l-0.913 0.011c-0.251 0.003-0.497 0.069-0.715 0.192l-0.796 0.447c-0.456 0.256-1.012 0.256-1.468 0l-0.796-0.447c-0.219-0.123-0.465-0.189-0.715-0.192l-0.913-0.011c-0.523-0.006-1.004-0.285-1.271-0.734l-0.466-0.785c-0.128-0.216-0.308-0.396-0.524-0.524l-0.785-0.466c-0.449-0.267-0.727-0.748-0.734-1.271l-0.011-0.913c-0.003-0.251-0.069-0.497-0.192-0.715l-0.447-0.796c-0.256-0.456-0.256-1.012 0-1.468l0.447-0.796c0.123-0.219 0.189-0.465 0.192-0.715l0.011-0.913c0.006-0.523 0.284-1.004 0.734-1.271l0.785-0.466c0.216-0.128 0.396-0.308 0.524-0.524l0.466-0.785c0.267-0.449 0.748-0.727 1.271-0.734l0.913-0.011c0.251-0.003 0.497-0.069 0.715-0.192l0.796-0.447z"></path>
<path fill="none" stroke="#0f59d4" style="stroke: var(--color1, #0f59d4)" stroke-linejoin="round" stroke-linecap="round" stroke-miterlimit="4" stroke-width="1" d="M18.75 8.75l-5.5 5.5"></path>
<path fill="#0f59d4" style="fill: var(--color1, #0f59d4)" d="M16 23c0.276 0 0.5 0.224 0.5 0.5v0.634l0.549-0.317c0.239-0.138 0.545-0.056 0.683 0.183s0.056 0.545-0.183 0.683l-0.549 0.317 0.549 0.317c0.239 0.138 0.321 0.444 0.183 0.683s-0.444 0.321-0.683 0.183l-0.549-0.317v0.634c0 0.276-0.224 0.5-0.5 0.5s-0.5-0.224-0.5-0.5v-0.634l-0.549 0.317c-0.239 0.138-0.545 0.056-0.683-0.183s-0.056-0.545 0.183-0.683l0.549-0.317-0.549-0.317c-0.239-0.138-0.321-0.444-0.183-0.683s0.444-0.321 0.683-0.183l0.549 0.317v-0.634c0-0.276 0.224-0.5 0.5-0.5z"></path>
<path fill="#0f59d4" style="fill: var(--color1, #0f59d4)" d="M11 23c0.276 0 0.5 0.224 0.5 0.5v0.634l0.549-0.317c0.239-0.138 0.545-0.056 0.683 0.183s0.056 0.545-0.183 0.683l-0.549 0.317 0.549 0.317c0.239 0.138 0.321 0.444 0.183 0.683s-0.444 0.321-0.683 0.183l-0.549-0.317v0.634c0 0.276-0.224 0.5-0.5 0.5s-0.5-0.224-0.5-0.5v-0.634l-0.549 0.317c-0.239 0.138-0.545 0.056-0.683-0.183s-0.056-0.545 0.183-0.683l0.549-0.317-0.549-0.317c-0.239-0.138-0.321-0.444-0.183-0.683s0.444-0.321 0.683-0.183l0.549 0.317v-0.634c0-0.276 0.224-0.5 0.5-0.5z"></path>
<path fill="#0f59d4" style="fill: var(--color1, #0f59d4)" d="M21 23c0.276 0 0.5 0.224 0.5 0.5v0.634l0.549-0.317c0.239-0.138 0.545-0.056 0.683 0.183s0.056 0.545-0.183 0.683l-0.549 0.317 0.549 0.317c0.239 0.138 0.321 0.444 0.183 0.683s-0.444 0.321-0.683 0.183l-0.549-0.317v0.634c0 0.276-0.224 0.5-0.5 0.5s-0.5-0.224-0.5-0.5v-0.634l-0.549 0.317c-0.239 0.138-0.545 0.056-0.683-0.183s-0.056-0.545 0.183-0.683l0.549-0.317-0.549-0.317c-0.239-0.138-0.321-0.444-0.183-0.683s0.444-0.321 0.683-0.183l0.549 0.317v-0.634c0-0.276 0.224-0.5 0.5-0.5z"></path>
<path fill="none" stroke="#0f59d4" style="stroke: var(--color1, #0f59d4)" stroke-linejoin="miter" stroke-linecap="butt" stroke-miterlimit="4" stroke-width="1" d="M18.75 13.5c0 0.414-0.336 0.75-0.75 0.75s-0.75-0.336-0.75-0.75c0-0.414 0.336-0.75 0.75-0.75s0.75 0.336 0.75 0.75z"></path>
<path fill="none" stroke="#0f59d4" style="stroke: var(--color1, #0f59d4)" stroke-linejoin="miter" stroke-linecap="butt" stroke-miterlimit="4" stroke-width="1" d="M14.75 9.5c0 0.414-0.336 0.75-0.75 0.75s-0.75-0.336-0.75-0.75c0-0.414 0.336-0.75 0.75-0.75s0.75 0.336 0.75 0.75z"></path>
</symbol>
<symbol id="icon-icon-3" viewBox="0 0 32 32">
<path fill="#0f59d4" style="fill: var(--color1, #0f59d4)" d="M24 25v-18c0-0.276-0.224-0.5-0.5-0.5h-10.25v3.75c0 0.828-0.672 1.5-1.5 1.5h-3.75v13.25c0 0.276 0.224 0.5 0.5 0.5h15c0.276 0 0.5-0.224 0.5-0.5zM12.75 5.5c0.015 0 0.030 0.001 0.045 0.002 0.025-0.001 0.051-0.002 0.077-0.002h10.629c0.828 0 1.5 0.672 1.5 1.5v18c0 0.828-0.672 1.5-1.5 1.5h-15c-0.828 0-1.5-0.672-1.5-1.5v-13.629c0-0.026 0.001-0.051 0.002-0.077-0.001-0.015-0.002-0.030-0.002-0.045 0-0.057 0.010-0.112 0.027-0.163 0.056-0.292 0.199-0.563 0.412-0.776l4.371-4.371c0.213-0.213 0.484-0.356 0.776-0.412 0.051-0.018 0.106-0.027 0.163-0.027zM12.25 6.914l-3.836 3.836h3.336c0.276 0 0.5-0.224 0.5-0.5v-3.336zM11 14.25c-0.276 0-0.5 0.224-0.5 0.5s0.224 0.5 0.5 0.5h10c0.276 0 0.5-0.224 0.5-0.5s-0.224-0.5-0.5-0.5h-10zM10.5 18.25c0-0.276 0.224-0.5 0.5-0.5h10c0.276 0 0.5 0.224 0.5 0.5s-0.224 0.5-0.5 0.5h-10c-0.276 0-0.5-0.224-0.5-0.5zM11 21.25c-0.276 0-0.5 0.224-0.5 0.5s0.224 0.5 0.5 0.5h10c0.276 0 0.5-0.224 0.5-0.5s-0.224-0.5-0.5-0.5h-10z"></path>
<path fill="#0f59d4" style="fill: var(--color1, #0f59d4)" d="M9 27.5c0-2.485-2.015-4.5-4.5-4.5s-4.5 2.015-4.5 4.5c0 2.485 2.015 4.5 4.5 4.5s4.5-2.015 4.5-4.5z"></path>
<path fill="#fff" style="fill: var(--color2, #fff)" d="M4.355 29.798c-0.296 0-0.584-0.046-0.864-0.138-0.276-0.092-0.502-0.216-0.678-0.372l0.276-0.474c0.14 0.132 0.322 0.24 0.546 0.324s0.464 0.126 0.72 0.126c0.312 0 0.554-0.066 0.726-0.198 0.176-0.136 0.264-0.318 0.264-0.546 0-0.22-0.084-0.396-0.252-0.528-0.164-0.136-0.426-0.204-0.786-0.204h-0.336v-0.42l1.248-1.536 0.084 0.24h-2.298v-0.522h2.772v0.408l-1.242 1.53-0.312-0.186h0.198c0.508 0 0.888 0.114 1.14 0.342 0.256 0.228 0.384 0.518 0.384 0.87 0 0.236-0.058 0.452-0.174 0.648s-0.292 0.352-0.528 0.468c-0.232 0.112-0.528 0.168-0.888 0.168z"></path>
</symbol>
<symbol id="icon-icon-2" viewBox="0 0 32 32">
<path fill="#0f59d4" style="fill: var(--color1, #0f59d4)" d="M16.618 0.601c-0.273-0.563-1.075-0.563-1.348 0l-1.217 2.509-2.755 0.387c-0.619 0.087-0.866 0.847-0.417 1.281l2.004 1.939-0.485 2.751c-0.109 0.616 0.54 1.086 1.091 0.791l2.453-1.311 2.453 1.311c0.552 0.295 1.201-0.175 1.091-0.791l-0.485-2.751 2.004-1.939c0.448-0.434 0.201-1.194-0.417-1.281l-2.755-0.387-1.218-2.509zM15.945 1.499l1.050 2.166c0.109 0.224 0.322 0.38 0.571 0.415l2.379 0.333-1.732 1.677c-0.178 0.173-0.259 0.423-0.216 0.668l0.418 2.377-2.118-1.132c-0.22-0.117-0.485-0.117-0.706 0l-2.118 1.132 0.419-2.377c0.044-0.245-0.038-0.494-0.217-0.668l-1.732-1.677 2.381-0.333c0.247-0.036 0.462-0.191 0.57-0.415l1.052-2.166zM27.042 4.355c-0.273-0.563-1.075-0.563-1.348 0l-0.828 1.707-1.874 0.262c-0.619 0.087-0.866 0.847-0.418 1.281l1.364 1.319-0.331 1.873c-0.108 0.615 0.54 1.084 1.091 0.791l1.668-0.892 1.669 0.892c0.55 0.294 1.199-0.176 1.090-0.791l-0.329-1.873 1.363-1.319c0.448-0.434 0.201-1.194-0.416-1.281l-1.874-0.262-0.828-1.707zM26.367 5.255l0.661 1.363c0.109 0.224 0.324 0.38 0.571 0.414l1.498 0.212-1.091 1.056c-0.179 0.173-0.259 0.423-0.216 0.669l0.264 1.496-1.333-0.712c-0.221-0.119-0.486-0.119-0.706 0l-1.333 0.712 0.264-1.496c0.044-0.246-0.038-0.496-0.217-0.669l-1.091-1.056 1.5-0.212c0.247-0.034 0.46-0.19 0.57-0.414l0.661-1.363zM6.196 4.355c-0.273-0.563-1.075-0.563-1.348 0l-0.828 1.707-1.874 0.262c-0.617 0.087-0.866 0.847-0.417 1.281l1.363 1.319-0.331 1.873c-0.108 0.615 0.541 1.084 1.091 0.791l1.668-0.892 1.669 0.892c0.55 0.294 1.199-0.176 1.091-0.791l-0.331-1.873 1.363-1.319c0.449-0.434 0.201-1.194-0.417-1.281l-1.874-0.262-0.828-1.707zM5.521 5.255l0.662 1.363c0.108 0.224 0.322 0.38 0.57 0.414l1.5 0.212-1.093 1.056c-0.178 0.173-0.26 0.423-0.216 0.669l0.264 1.496-1.333-0.712c-0.22-0.119-0.486-0.119-0.706 0l-1.333 0.712 0.264-1.496c0.044-0.246-0.038-0.496-0.216-0.669l-1.093-1.056 1.5-0.212c0.247-0.034 0.462-0.19 0.57-0.414l0.661-1.363zM23.534 13.193c0.552 0 0.998 0.448 0.998 1v10.503c0 0.552-0.447 1-0.998 1h-1.433c-0.276 0-0.5 0.224-0.5 0.498v2.057l-2.891-2.438c-0.090-0.076-0.203-0.117-0.322-0.117h-10.031c-0.552 0-0.998-0.448-0.998-1v-10.503c0-0.552 0.447-1 0.998-1l15.177 0zM25.532 14.193c0-1.104-0.895-1.998-1.998-1.998h-15.177c-1.104 0-1.998 0.895-1.998 1.998v10.503c0 1.103 0.895 1.998 1.998 1.998h9.849l3.573 3.013c0.149 0.126 0.356 0.153 0.533 0.071s0.288-0.258 0.288-0.452v-2.632h0.934c1.104 0 1.998-0.895 1.998-1.998l-0-10.503zM21.232 16.999c0-0.276-0.224-0.499-0.5-0.499h-9.574c-0.276 0-0.5 0.223-0.5 0.499s0.224 0.5 0.5 0.5h9.574c0.276 0 0.5-0.224 0.5-0.5zM21.232 19.346c0-0.276-0.224-0.499-0.5-0.499h-9.574c-0.276 0-0.5 0.223-0.5 0.499s0.224 0.5 0.5 0.5h9.574c0.276 0 0.5-0.224 0.5-0.5zM21.232 21.696c0-0.276-0.224-0.5-0.5-0.5h-5.471c-0.276 0-0.5 0.224-0.5 0.5s0.224 0.499 0.5 0.499h5.471c0.276 0 0.5-0.223 0.5-0.499z"></path>
<path fill="#0f59d4" style="fill: var(--color1, #0f59d4)" d="M9 27.5c0-2.485-2.015-4.5-4.5-4.5s-4.5 2.015-4.5 4.5c0 2.485 2.015 4.5 4.5 4.5s4.5-2.015 4.5-4.5z"></path>
<path fill="#fff" style="fill: var(--color2, #fff)" d="M2.999 29.75v-0.408l1.71-1.65c0.152-0.144 0.264-0.27 0.336-0.378 0.076-0.112 0.126-0.214 0.15-0.306 0.028-0.096 0.042-0.188 0.042-0.276 0-0.216-0.076-0.386-0.228-0.51s-0.374-0.186-0.666-0.186c-0.224 0-0.426 0.038-0.606 0.114-0.18 0.072-0.336 0.186-0.468 0.342l-0.408-0.354c0.16-0.204 0.374-0.36 0.642-0.468 0.272-0.112 0.57-0.168 0.894-0.168 0.292 0 0.546 0.048 0.762 0.144 0.216 0.092 0.382 0.226 0.498 0.402 0.12 0.176 0.18 0.384 0.18 0.624 0 0.136-0.018 0.27-0.054 0.402s-0.104 0.272-0.204 0.42c-0.1 0.148-0.244 0.314-0.432 0.498l-1.524 1.47-0.144-0.234h2.538v0.522h-3.018z"></path>
</symbol>
<symbol id="icon-icon-1" viewBox="0 0 32 32">
<path fill="#0f59d4" style="fill: var(--color1, #0f59d4)" d="M10.75 7h10.5c4.28 0 7.75 3.47 7.75 7.75 0 1.36-0.351 2.639-0.966 3.75h-6.034c-0.552 0-1 0.448-1 1v3h-10.25c-4.28 0-7.75-3.47-7.75-7.75s3.47-7.75 7.75-7.75zM29.919 18.5h-0.761c0.54-1.137 0.842-2.408 0.842-3.75 0-4.832-3.918-8.75-8.75-8.75h-10.5c-4.832 0-8.75 3.918-8.75 8.75s3.918 8.75 8.75 8.75h10.25v3.919c0 0.891 1.077 1.337 1.707 0.707l2.126-2.126 3.057 3.057c0.521 0.521 1.365 0.521 1.886 0l1.781-1.781c0.521-0.521 0.521-1.365 0-1.886l-3.057-3.057 2.126-2.126c0.63-0.63 0.184-1.707-0.707-1.707zM27.5 22.333c0-0.265 0.105-0.52 0.293-0.707l2.126-2.126h-7.919v7.919l2.126-2.126c0.188-0.188 0.442-0.293 0.707-0.293s0.52 0.105 0.707 0.293l3.057 3.057c0.13 0.13 0.341 0.13 0.471 0l1.781-1.781c0.13-0.13 0.13-0.341 0-0.471l-3.057-3.057c-0.188-0.188-0.293-0.442-0.293-0.707zM8 9.5c0-0.276 0.224-0.5 0.5-0.5h3.5c0.227 0 0.425 0.152 0.483 0.371l0.434 1.629h7.083c0.157 0 0.305 0.074 0.399 0.199s0.125 0.288 0.082 0.438l-1 3.5c-0.061 0.215-0.258 0.363-0.481 0.363l-4.883 0 0.267 1h4.616c0.276 0 0.5 0.224 0.5 0.5s-0.224 0.5-0.5 0.5h-5c-0.227 0-0.425-0.152-0.483-0.371l-1.901-7.129h-3.116c-0.276 0-0.5-0.224-0.5-0.5zM13.851 14.5l-0.667-2.5h6.153l-0.714 2.5-4.772 0zM15 19.25c0 0.138-0.112 0.25-0.25 0.25s-0.25-0.112-0.25-0.25c0-0.138 0.112-0.25 0.25-0.25s0.25 0.112 0.25 0.25zM16 19.25c0 0.69-0.56 1.25-1.25 1.25s-1.25-0.56-1.25-1.25c0-0.69 0.56-1.25 1.25-1.25s1.25 0.56 1.25 1.25zM18.25 19.5c0.138 0 0.25-0.112 0.25-0.25s-0.112-0.25-0.25-0.25c-0.138 0-0.25 0.112-0.25 0.25s0.112 0.25 0.25 0.25zM18.25 20.5c0.69 0 1.25-0.56 1.25-1.25s-0.56-1.25-1.25-1.25c-0.69 0-1.25 0.56-1.25 1.25s0.56 1.25 1.25 1.25z"></path>
<path fill="#0f59d4" style="fill: var(--color1, #0f59d4)" d="M9 27.5c0-2.485-2.015-4.5-4.5-4.5s-4.5 2.015-4.5 4.5c0 2.485 2.015 4.5 4.5 4.5s4.5-2.015 4.5-4.5z"></path>
<path fill="#fff" style="fill: var(--color2, #fff)" d="M4.496 29.75v-3.96l0.258 0.282h-1.206v-0.522h1.542v4.2h-0.594z"></path>
</symbol>
<symbol id="icon-mediaexpert-logo" viewBox="0 0 232 32">
<path fill="#fff" style="fill: var(--color2, #fff)" d="M185.919 8.46c-0.070-0.047-0.14-0.071-0.211-0.071-0.562 0.047-1.428 0.26-2.084 0.52-0.844 0.378-1.711 0.993-2.46 1.678v-1.891c0-0.165-0.118-0.284-0.281-0.284h-5.108c-0.14 0-0.281 0.118-0.281 0.284v16.972c0 0.165 0.141 0.284 0.281 0.284h5.436c0.14 0 0.281-0.118 0.281-0.284v-11.18c0.164-0.071 0.398-0.165 0.398-0.165 0.469-0.189 0.937-0.402 1.734-0.544 0.842-0.142 1.617-0.165 2.084-0.118 0.071 0 0.164-0.024 0.211-0.071 0.070-0.071 0.093-0.142 0.093-0.213v-4.704c0-0.071-0.023-0.165-0.093-0.213z"></path>
<path fill="#fff" style="fill: var(--color2, #fff)" d="M134.793 25.502c0 0-5.975-8.462-6.209-8.793 0.234-0.307 5.834-7.848 5.834-7.848 0.023-0.047 0.047-0.118 0.047-0.165s0-0.095-0.024-0.142c-0.046-0.095-0.141-0.142-0.258-0.142h-5.623c-0.094 0-0.164 0.047-0.234 0.118 0 0-2.765 4.042-3.163 4.633-0.399-0.591-3.139-4.633-3.139-4.633-0.047-0.071-0.141-0.118-0.234-0.118h-6.022c-0.093 0-0.187 0.047-0.233 0.142-0.024 0.047-0.048 0.095-0.048 0.142s0.024 0.118 0.071 0.165c0 0 5.858 7.659 6.091 7.966-0.233 0.355-6.209 8.675-6.209 8.675-0.024 0.047-0.047 0.118-0.047 0.165s0 0.095 0.023 0.142c0.047 0.095 0.164 0.142 0.258 0.142h5.881c0.117 0 0.188-0.047 0.258-0.142 0 0 2.858-4.633 3.28-5.318 0.422 0.686 3.187 5.318 3.187 5.318 0.070 0.095 0.14 0.142 0.258 0.142h6.021c0.117 0 0.211-0.047 0.258-0.142 0.024-0.047 0.024-0.095 0.024-0.142s0-0.118-0.047-0.165z"></path>
<path fill="#fff" style="fill: var(--color2, #fff)" d="M145.057 8.247c-0.68 0.095-1.359 0.236-1.992 0.449-0.538 0.165-1.078 0.402-1.546 0.662v-0.662c0-0.165-0.117-0.284-0.28-0.284h-5.108c-0.14 0-0.281 0.118-0.281 0.284v22.905c0 0.142 0.141 0.284 0.281 0.284h5.436c0.14 0 0.281-0.142 0.281-0.284v-5.933c0.351 0.118 0.749 0.236 1.101 0.307 0.563 0.118 1.242 0.213 2.109 0.26v-4.538c-0.351 0.047-0.726 0.071-1.126 0.047-0.819-0.024-1.64-0.213-2.084-0.402v-7.729c0.422-0.26 0.889-0.449 1.359-0.591 0.539-0.142 1.241-0.236 1.734-0.236h0.117v-4.538zM152.507 10.729c-1.335-1.607-3.233-2.458-5.646-2.553-0.586-0.024-1.195 0-1.804 0.071v4.538c1.101 0.024 1.874 0.378 2.46 1.111 0.491 0.638 0.749 1.678 0.772 3.096 0 1.513-0.351 2.742-1.007 3.569-0.516 0.614-1.266 0.993-2.226 1.134v4.538h0.679c1.148-0.024 2.577-0.307 3.467-0.686 1.079-0.473 1.922-1.087 2.695-1.915 0.749-0.827 1.311-1.749 1.734-2.884 0.398-1.134 0.632-2.576 0.632-4.089 0-2.387-0.632-4.562-1.757-5.933z"></path>
<path fill="#fff" style="fill: var(--color2, #fff)" d="M197.938 21.886c-0.071-0.071-0.164-0.095-0.234-0.071-0.141 0.047-1.406 0.142-1.687 0.142-0.773 0.024-1.312-0.047-1.546-0.189-0.281-0.165-0.422-0.331-0.562-0.638-0.141-0.331-0.164-0.804-0.164-1.182l-0.023-1.536v-5.413h3.795c0.141 0 0.281-0.118 0.281-0.284v-3.687c0-0.165-0.14-0.284-0.281-0.284h-3.889v-4.917c0-0.095-0.023-0.165-0.094-0.213-0.070-0.071-0.186-0.071-0.258-0.047l-5.342 1.631c-0.117 0.024-0.187 0.142-0.187 0.26v14.844c0 2.269 0.492 3.687 1.64 4.633 1.078 0.898 2.718 1.371 4.85 1.371l2.436-0.142 0.258-0.024 0.89-0.142c0.141-0.024 0.234-0.142 0.234-0.284v-3.616c0-0.095-0.047-0.165-0.117-0.213z"></path>
<path fill="#fff" style="fill: var(--color2, #fff)" d="M106.912 7.869c-2.648 0.095-4.78 0.922-6.467 2.529-1.687 1.655-2.6 4.018-2.648 6.855-0.024 2.836 1.055 5.507 2.788 6.997 1.688 1.418 3.609 2.080 6.327 2.151v-4.444c-0.774-0.118-1.358-0.355-1.828-0.709-0.492-0.378-1.054-1.253-1.195-2.458h3.023v-3.735h-3.069c0.070-0.945 0.492-2.009 1.007-2.458 0.633-0.544 1.172-0.756 2.062-0.78v-3.947zM106.912 26.401h0.844c2.015-0.024 3.702-0.307 5.998-0.969 0.117-0.024 0.211-0.142 0.211-0.284v-3.735c0-0.095-0.047-0.189-0.118-0.236s-0.164-0.071-0.257-0.047c-1.664 0.567-3.539 0.875-4.569 0.922-0.82 0.024-1.523 0-2.109-0.095v4.444zM113.613 10.256c-1.406-1.631-3.398-2.387-6.257-2.387h-0.445v3.947h0.163c0.962 0 1.594 0.236 2.109 0.804 0.399 0.425 0.774 1.442 0.774 2.411v0.024h-3.046v3.735h8.365c0.14 0 0.281-0.118 0.281-0.284l0.070-1.56v-0.284c0-2.766-0.632-4.822-2.014-6.406z"></path>
<path fill="#fff" style="fill: var(--color2, #fff)" d="M164.644 7.869c-2.647 0.095-4.756 0.922-6.444 2.529-1.71 1.655-2.624 4.018-2.647 6.855s1.054 5.507 2.788 6.997c1.687 1.418 3.608 2.080 6.302 2.151v-4.444c-0.75-0.118-1.335-0.355-1.805-0.709-0.491-0.378-1.054-1.229-1.217-2.458h3.022v-3.735h-3.046c0.047-0.945 0.469-2.009 1.008-2.458 0.609-0.544 1.148-0.756 2.038-0.78v-3.947zM164.644 26.4h0.867c2.015-0.024 3.679-0.307 5.999-0.969 0.117-0.024 0.21-0.142 0.21-0.284v-3.735c0-0.095-0.047-0.189-0.14-0.236-0.070-0.047-0.164-0.071-0.234-0.047-1.663 0.567-3.538 0.875-4.569 0.922-0.844 0.024-1.523 0-2.132-0.095v4.444zM171.368 10.256c-1.43-1.631-3.421-2.387-6.279-2.387h-0.445v3.947h0.188c0.937 0 1.57 0.236 2.109 0.804 0.398 0.425 0.773 1.442 0.773 2.387v0.047h-3.069v3.735h8.388c0.141 0 0.281-0.118 0.281-0.284l0.071-1.56v-0.307c0-2.742-0.657-4.798-2.015-6.382z"></path>
<path fill="#fff200" style="fill: var(--color3, #fff200)" d="M76.171 8.412h-5.412c-0.164 0-0.281 0.118-0.281 0.284v16.972c0 0.165 0.117 0.284 0.281 0.284h5.412c0.164 0 0.305-0.118 0.305-0.284v-16.972c0-0.165-0.14-0.284-0.305-0.284z"></path>
<path fill="#fff200" style="fill: var(--color3, #fff200)" d="M57.826 8.153c-0.211-0.024-0.422-0.024-0.656-0.024-1.172 0.024-2.601 0.307-3.491 0.709-1.054 0.449-1.921 1.064-2.694 1.915-0.75 0.804-1.312 1.749-1.71 2.86-0.422 1.134-0.656 2.576-0.656 4.089 0 2.387 0.656 4.562 1.781 5.933 1.312 1.607 3.21 2.482 5.623 2.577 0.586 0.024 1.195-0.024 1.804-0.095v-4.515c-1.101-0.024-1.875-0.378-2.437-1.111-0.515-0.638-0.773-1.702-0.773-3.12-0.023-1.513 0.328-2.742 1.008-3.546 0.515-0.614 1.242-0.993 2.202-1.134v-4.538zM66.753 2.503h-5.412c-0.164 0-0.281 0.118-0.281 0.284v5.933c-0.351-0.142-0.773-0.26-1.124-0.331-0.562-0.095-1.218-0.213-2.109-0.236v4.538c0.351-0.047 0.726-0.071 1.124-0.047 0.82 0 1.64 0.213 2.109 0.402v7.729c-0.445 0.236-0.914 0.449-1.382 0.567-0.516 0.165-1.242 0.26-1.734 0.26h-0.117v4.515c0.703-0.071 1.382-0.213 2.015-0.425 0.515-0.166 1.054-0.402 1.523-0.662v0.638c0 0.166 0.141 0.307 0.281 0.307h5.108c0.164 0 0.281-0.142 0.281-0.307v-22.881c0-0.165-0.117-0.284-0.281-0.284z"></path>
<path fill="#fff200" style="fill: var(--color3, #fff200)" d="M38.215 7.869c-2.648 0.095-4.78 0.922-6.467 2.529-1.687 1.655-2.601 4.018-2.624 6.855s1.031 5.507 2.788 6.997c1.664 1.418 3.585 2.080 6.303 2.151v-4.444c-0.773-0.118-1.359-0.355-1.828-0.709-0.469-0.378-1.054-1.229-1.195-2.458h3.022v-3.735h-3.069c0.070-0.945 0.492-2.009 1.008-2.458 0.633-0.544 1.172-0.756 2.062-0.78v-3.947zM38.215 26.4h0.843c2.015-0.024 3.702-0.307 5.998-0.969 0.117-0.024 0.211-0.142 0.211-0.284v-3.735c0-0.095-0.047-0.189-0.117-0.236s-0.164-0.071-0.258-0.047c-1.663 0.567-3.538 0.875-4.569 0.922-0.82 0.024-1.523 0-2.109-0.095v4.444zM44.916 10.256c-1.406-1.631-3.397-2.387-6.256-2.387h-0.445v3.947h0.164c0.961 0 1.593 0.236 2.109 0.804 0.398 0.425 0.773 1.442 0.773 2.387v0.047h-3.046v3.735h8.365c0.164 0 0.281-0.118 0.281-0.284l0.070-1.56v-0.284c0-2.766-0.633-4.822-2.015-6.406z"></path>
<path fill="#fff200" style="fill: var(--color3, #fff200)" d="M86.972 14.487c-0.445 0.047-0.937 0.118-1.429 0.165-1.5 0.213-2.788 0.544-3.796 0.993-0.984 0.425-1.827 1.135-2.46 2.033s-0.867 2.245-0.867 3.191v0.095c0 1.158 0.258 2.718 1.546 3.9 1.078 0.993 2.46 1.513 4.217 1.537 0.937 0.024 1.874-0.071 2.788-0.284v-3.947c-0.211 0.047-0.422 0.071-0.632 0.095-0.89 0.024-1.5-0.118-1.898-0.851-0.118-0.189-0.188-0.473-0.188-0.804 0-0.426 0.094-0.875 0.398-1.3 0.328-0.449 1.078-0.851 2.109-1.111 0.070-0.024 0.141-0.024 0.211-0.047v-3.664zM86.972 7.916c-1.101 0.024-2.249 0.142-3.421 0.331l-2.366 0.496-0.422 0.095c-0.117 0.024-0.234 0.142-0.234 0.26v3.617c0 0.071 0.047 0.165 0.117 0.213 0.094 0.071 0.188 0.071 0.258 0.047 0.398-0.142 1.43-0.496 2.648-0.709 0.75-0.142 1.687-0.236 2.624-0.26 0.281 0 0.563 0 0.797 0.024v-4.113zM95.641 14.771c-0.070-2.411-0.844-4.326-2.156-5.366-0.82-0.615-1.827-1.040-3.139-1.276-0.961-0.165-2.062-0.236-3.374-0.213v4.113c0.844 0.024 1.453 0.189 1.898 0.496 0.539 0.331 0.797 0.922 0.844 1.726-0.914 0.071-1.804 0.142-2.742 0.236v3.664c0.727-0.165 1.663-0.284 2.742-0.378v3.191c-0.398 0.307-1.523 0.993-2.742 1.206v3.947c0.586-0.118 1.172-0.307 1.734-0.52 0 0 0.844-0.402 1.335-0.615v0.685c0 0.165 0.118 0.284 0.281 0.284h5.037c0.141 0 0.281-0.118 0.281-0.284 0-0.095 0.047-8.722 0-10.897z"></path>
<path fill="#fff200" style="fill: var(--color3, #fff200)" d="M26.031 9.807c-0.797-0.922-1.921-1.489-3.397-1.678l-0.328-0.047c-0.023 0-0.164-0.024-0.164-0.024l-0.515-0.024c-1.335 0-2.601 0.26-3.749 0.733-0.726 0.307-1.664 0.922-2.132 1.253-0.539-0.804-1.312-1.395-2.367-1.702-0.515-0.142-1.078-0.236-1.757-0.26-1.195-0.047-2.718 0.165-3.702 0.52-0.633 0.213-1.429 0.591-2.249 1.158v-1.040c0-0.165-0.141-0.284-0.281-0.284h-5.108c-0.164 0-0.281 0.118-0.281 0.284v16.972c0 0.165 0.117 0.284 0.281 0.284h5.436c0.141 0 0.281-0.118 0.281-0.284v-11.866c0.492-0.331 1.476-0.804 2.413-0.898 0.68-0.047 1.218 0.071 1.593 0.402 0.586 0.496 0.633 1.371 0.679 1.749 0 0.071 0.047 2.127 0.047 2.127v8.486c0 0.165 0.141 0.284 0.281 0.284h5.389c0.164 0 0.281-0.118 0.281-0.284v-11.866c0.492-0.331 1.5-0.804 2.437-0.898 0.68-0.047 1.218 0.071 1.593 0.402 0.586 0.496 0.633 1.371 0.656 1.749 0 0.071 0.070 2.127 0.070 2.127v8.486c0 0.165 0.117 0.284 0.281 0.284h5.459c0.141 0 0.281-0.118 0.281-0.284v-11.039c0-2.198-0.445-3.687-1.429-4.822z"></path>
<path fill="#fff" style="fill: var(--color2, #fff)" d="M77.367 3.803l-3.561-3.593c-0.047-0.047-0.118-0.095-0.188-0.095-0.094 0-0.164 0.047-0.211 0.095l-3.561 3.593c-0.118 0.118-0.118 0.284 0 0.402l3.561 3.593c0.047 0.047 0.117 0.071 0.211 0.071 0.070 0 0.141-0.024 0.188-0.071l3.561-3.593c0.117-0.118 0.117-0.284 0-0.402z"></path>
<path fill="#fff200" style="fill: var(--color3, #fff200)" d="M231.725 15.953c0 7.375-5.951 13.379-13.285 13.379s-13.285-6.004-13.285-13.379c0-7.398 5.951-13.402 13.285-13.402s13.285 6.004 13.285 13.402z"></path>
<path fill="#000" style="fill: var(--color4, #000)" d="M225.374 15.639c0-0.515-0.21-0.961-0.586-1.265l-7.802-6.747c-0.492-0.445-1.172-0.515-1.757-0.211-0.538 0.281-0.89 0.843-0.89 1.476v13.47c0 0.632 0.351 1.195 0.89 1.476 0.585 0.305 1.266 0.211 1.757-0.211l7.802-6.747c0.376-0.305 0.586-0.773 0.586-1.242z"></path>
</symbol>
</defs>
</svg>
